<mxfile host="app.diagrams.net" modified="2024-07-02T03:08:38.430Z" agent="Mozilla/5.0 (Windows NT 10.0; Win64; x64; rv:128.0) Gecko/20100101 Firefox/128.0" etag="48btH3wJ2I_Wegn83qon" version="24.6.4" type="github">
  <diagram name="Page-1" id="2YBvvXClWsGukQMizWep">
    <mxGraphModel dx="1728" dy="945" grid="1" gridSize="10" guides="1" tooltips="1" connect="1" arrows="1" fold="1" page="1" pageScale="1" pageWidth="850" pageHeight="1100" math="0" shadow="0">
      <root>
        <mxCell id="0" />
        <mxCell id="1" parent="0" />
        <mxCell id="3RcGyOM-Nz1dXa5BIl1i-7" value="&lt;div&gt;Admin&lt;/div&gt;&lt;div&gt;&lt;br&gt;&lt;/div&gt;" style="shape=umlActor;verticalLabelPosition=bottom;verticalAlign=top;html=1;outlineConnect=0;" parent="1" vertex="1">
          <mxGeometry x="70" width="30" height="60" as="geometry" />
        </mxCell>
        <mxCell id="3RcGyOM-Nz1dXa5BIl1i-8" value="" style="endArrow=none;dashed=1;html=1;rounded=0;entryX=0.5;entryY=0.5;entryDx=0;entryDy=0;entryPerimeter=0;" parent="1" target="3RcGyOM-Nz1dXa5BIl1i-7" edge="1" source="aIIOKU_stQFObS0WnXqj-24">
          <mxGeometry width="50" height="50" relative="1" as="geometry">
            <mxPoint x="85" y="580" as="sourcePoint" />
            <mxPoint x="320" y="80" as="targetPoint" />
          </mxGeometry>
        </mxCell>
        <mxCell id="3RcGyOM-Nz1dXa5BIl1i-9" value="" style="rounded=0;whiteSpace=wrap;html=1;" parent="1" vertex="1">
          <mxGeometry x="80" y="100" width="10" height="90" as="geometry" />
        </mxCell>
        <mxCell id="3RcGyOM-Nz1dXa5BIl1i-10" value="" style="endArrow=classic;html=1;rounded=0;" parent="1" edge="1">
          <mxGeometry width="50" height="50" relative="1" as="geometry">
            <mxPoint x="100" y="100" as="sourcePoint" />
            <mxPoint x="320" y="100" as="targetPoint" />
          </mxGeometry>
        </mxCell>
        <mxCell id="3RcGyOM-Nz1dXa5BIl1i-11" value="&lt;div&gt;Buka halaman Awal&lt;/div&gt;&lt;div&gt;&lt;br&gt;&lt;/div&gt;" style="edgeLabel;html=1;align=center;verticalAlign=middle;resizable=0;points=[];" parent="3RcGyOM-Nz1dXa5BIl1i-10" connectable="0" vertex="1">
          <mxGeometry x="-0.3051" relative="1" as="geometry">
            <mxPoint x="24" as="offset" />
          </mxGeometry>
        </mxCell>
        <mxCell id="3RcGyOM-Nz1dXa5BIl1i-12" value="Web" style="rounded=1;whiteSpace=wrap;html=1;" parent="1" vertex="1">
          <mxGeometry x="270" y="10" width="120" height="60" as="geometry" />
        </mxCell>
        <mxCell id="3RcGyOM-Nz1dXa5BIl1i-13" value="" style="endArrow=none;dashed=1;html=1;rounded=0;entryX=0.5;entryY=1;entryDx=0;entryDy=0;" parent="1" source="3RcGyOM-Nz1dXa5BIl1i-15" target="3RcGyOM-Nz1dXa5BIl1i-12" edge="1">
          <mxGeometry width="50" height="50" relative="1" as="geometry">
            <mxPoint x="330" y="330" as="sourcePoint" />
            <mxPoint x="340" y="90" as="targetPoint" />
          </mxGeometry>
        </mxCell>
        <mxCell id="3RcGyOM-Nz1dXa5BIl1i-14" value="" style="endArrow=none;dashed=1;html=1;rounded=0;entryX=0.5;entryY=1;entryDx=0;entryDy=0;" parent="1" source="3RcGyOM-Nz1dXa5BIl1i-29" target="3RcGyOM-Nz1dXa5BIl1i-15" edge="1">
          <mxGeometry width="50" height="50" relative="1" as="geometry">
            <mxPoint x="330" y="440" as="sourcePoint" />
            <mxPoint x="330" y="70" as="targetPoint" />
          </mxGeometry>
        </mxCell>
        <mxCell id="3RcGyOM-Nz1dXa5BIl1i-15" value="" style="rounded=0;whiteSpace=wrap;html=1;" parent="1" vertex="1">
          <mxGeometry x="325" y="100" width="10" height="110" as="geometry" />
        </mxCell>
        <mxCell id="3RcGyOM-Nz1dXa5BIl1i-16" value="Database" style="rounded=1;whiteSpace=wrap;html=1;" parent="1" vertex="1">
          <mxGeometry x="520" y="10" width="120" height="60" as="geometry" />
        </mxCell>
        <mxCell id="3RcGyOM-Nz1dXa5BIl1i-17" value="" style="endArrow=none;dashed=1;html=1;rounded=0;entryX=0.5;entryY=1;entryDx=0;entryDy=0;" parent="1" source="3RcGyOM-Nz1dXa5BIl1i-21" target="3RcGyOM-Nz1dXa5BIl1i-16" edge="1">
          <mxGeometry width="50" height="50" relative="1" as="geometry">
            <mxPoint x="580" y="390" as="sourcePoint" />
            <mxPoint x="440" y="160" as="targetPoint" />
          </mxGeometry>
        </mxCell>
        <mxCell id="3RcGyOM-Nz1dXa5BIl1i-110" style="edgeStyle=orthogonalEdgeStyle;rounded=0;orthogonalLoop=1;jettySize=auto;html=1;" parent="1" source="3RcGyOM-Nz1dXa5BIl1i-21" edge="1">
          <mxGeometry relative="1" as="geometry">
            <mxPoint x="590" y="210" as="targetPoint" />
          </mxGeometry>
        </mxCell>
        <mxCell id="3RcGyOM-Nz1dXa5BIl1i-21" value="" style="rounded=0;whiteSpace=wrap;html=1;" parent="1" vertex="1">
          <mxGeometry x="575" y="160" width="10" height="80" as="geometry" />
        </mxCell>
        <mxCell id="3RcGyOM-Nz1dXa5BIl1i-24" value="" style="endArrow=classic;html=1;rounded=0;" parent="1" edge="1">
          <mxGeometry width="50" height="50" relative="1" as="geometry">
            <mxPoint x="90" y="170" as="sourcePoint" />
            <mxPoint x="320" y="170" as="targetPoint" />
          </mxGeometry>
        </mxCell>
        <mxCell id="3RcGyOM-Nz1dXa5BIl1i-25" value="isi username dan password" style="edgeLabel;html=1;align=center;verticalAlign=middle;resizable=0;points=[];" parent="3RcGyOM-Nz1dXa5BIl1i-24" connectable="0" vertex="1">
          <mxGeometry x="0.0494" y="-1" relative="1" as="geometry">
            <mxPoint as="offset" />
          </mxGeometry>
        </mxCell>
        <mxCell id="3RcGyOM-Nz1dXa5BIl1i-26" value="" style="rounded=0;whiteSpace=wrap;html=1;" parent="1" vertex="1">
          <mxGeometry x="80" y="220" width="10" height="110" as="geometry" />
        </mxCell>
        <mxCell id="3RcGyOM-Nz1dXa5BIl1i-102" value="" style="endArrow=classic;html=1;rounded=0;" parent="1" edge="1">
          <mxGeometry width="50" height="50" relative="1" as="geometry">
            <mxPoint x="320" y="130" as="sourcePoint" />
            <mxPoint x="100" y="130" as="targetPoint" />
          </mxGeometry>
        </mxCell>
        <mxCell id="3RcGyOM-Nz1dXa5BIl1i-103" value="&lt;div&gt;tampil laman login&lt;/div&gt;" style="edgeLabel;html=1;align=center;verticalAlign=middle;resizable=0;points=[];" parent="3RcGyOM-Nz1dXa5BIl1i-102" connectable="0" vertex="1">
          <mxGeometry x="0.0494" y="-1" relative="1" as="geometry">
            <mxPoint as="offset" />
          </mxGeometry>
        </mxCell>
        <mxCell id="3RcGyOM-Nz1dXa5BIl1i-106" value="" style="endArrow=classic;html=1;rounded=0;" parent="1" edge="1">
          <mxGeometry width="50" height="50" relative="1" as="geometry">
            <mxPoint x="340" y="170" as="sourcePoint" />
            <mxPoint x="570" y="170" as="targetPoint" />
          </mxGeometry>
        </mxCell>
        <mxCell id="3RcGyOM-Nz1dXa5BIl1i-107" value="&lt;div&gt;Validasi&lt;/div&gt;" style="edgeLabel;html=1;align=center;verticalAlign=middle;resizable=0;points=[];" parent="3RcGyOM-Nz1dXa5BIl1i-106" connectable="0" vertex="1">
          <mxGeometry x="-0.3724" y="-1" relative="1" as="geometry">
            <mxPoint x="51" as="offset" />
          </mxGeometry>
        </mxCell>
        <mxCell id="3RcGyOM-Nz1dXa5BIl1i-108" value="" style="endArrow=none;dashed=1;html=1;rounded=0;entryX=0.5;entryY=1;entryDx=0;entryDy=0;" parent="1" target="3RcGyOM-Nz1dXa5BIl1i-21" edge="1" source="aIIOKU_stQFObS0WnXqj-34">
          <mxGeometry width="50" height="50" relative="1" as="geometry">
            <mxPoint x="580" y="580" as="sourcePoint" />
            <mxPoint x="320" y="190" as="targetPoint" />
          </mxGeometry>
        </mxCell>
        <mxCell id="3RcGyOM-Nz1dXa5BIl1i-112" value="login sukses" style="text;strokeColor=none;fillColor=none;align=left;verticalAlign=middle;spacingLeft=4;spacingRight=4;overflow=hidden;points=[[0,0.5],[1,0.5]];portConstraint=eastwest;rotatable=0;whiteSpace=wrap;html=1;" parent="1" vertex="1">
          <mxGeometry x="605" y="160" width="80" height="30" as="geometry" />
        </mxCell>
        <mxCell id="3RcGyOM-Nz1dXa5BIl1i-113" value="" style="endArrow=none;dashed=1;html=1;rounded=0;entryX=0.5;entryY=1;entryDx=0;entryDy=0;" parent="1" target="3RcGyOM-Nz1dXa5BIl1i-29" edge="1" source="aIIOKU_stQFObS0WnXqj-7">
          <mxGeometry width="50" height="50" relative="1" as="geometry">
            <mxPoint x="330" y="440" as="sourcePoint" />
            <mxPoint x="330" y="180" as="targetPoint" />
          </mxGeometry>
        </mxCell>
        <mxCell id="3RcGyOM-Nz1dXa5BIl1i-29" value="" style="rounded=0;whiteSpace=wrap;html=1;" parent="1" vertex="1">
          <mxGeometry x="325" y="270" width="10" height="60" as="geometry" />
        </mxCell>
        <mxCell id="3RcGyOM-Nz1dXa5BIl1i-118" value="&lt;div&gt;login sebagai admin&lt;/div&gt;" style="html=1;verticalAlign=bottom;endArrow=open;dashed=1;endSize=8;curved=0;rounded=0;entryX=1;entryY=0;entryDx=0;entryDy=0;" parent="1" edge="1">
          <mxGeometry relative="1" as="geometry">
            <mxPoint x="590" y="240" as="sourcePoint" />
            <mxPoint x="90" y="240" as="targetPoint" />
          </mxGeometry>
        </mxCell>
        <mxCell id="aIIOKU_stQFObS0WnXqj-1" value="" style="endArrow=classic;html=1;rounded=0;" edge="1" parent="1">
          <mxGeometry width="50" height="50" relative="1" as="geometry">
            <mxPoint x="100" y="290" as="sourcePoint" />
            <mxPoint x="320" y="290" as="targetPoint" />
          </mxGeometry>
        </mxCell>
        <mxCell id="aIIOKU_stQFObS0WnXqj-2" value="&lt;div&gt;Buka halaman Menu&lt;/div&gt;&lt;div&gt;&lt;br&gt;&lt;/div&gt;" style="edgeLabel;html=1;align=center;verticalAlign=middle;resizable=0;points=[];" connectable="0" vertex="1" parent="aIIOKU_stQFObS0WnXqj-1">
          <mxGeometry x="-0.3051" relative="1" as="geometry">
            <mxPoint x="24" as="offset" />
          </mxGeometry>
        </mxCell>
        <mxCell id="aIIOKU_stQFObS0WnXqj-3" value="" style="endArrow=classic;html=1;rounded=0;" edge="1" parent="1">
          <mxGeometry width="50" height="50" relative="1" as="geometry">
            <mxPoint x="320" y="320" as="sourcePoint" />
            <mxPoint x="100" y="320" as="targetPoint" />
          </mxGeometry>
        </mxCell>
        <mxCell id="aIIOKU_stQFObS0WnXqj-4" value="&lt;div&gt;tampil laman Menu&lt;/div&gt;" style="edgeLabel;html=1;align=center;verticalAlign=middle;resizable=0;points=[];" connectable="0" vertex="1" parent="aIIOKU_stQFObS0WnXqj-3">
          <mxGeometry x="0.0494" y="-1" relative="1" as="geometry">
            <mxPoint as="offset" />
          </mxGeometry>
        </mxCell>
        <mxCell id="aIIOKU_stQFObS0WnXqj-5" value="" style="endArrow=classic;html=1;rounded=0;" edge="1" parent="1">
          <mxGeometry width="50" height="50" relative="1" as="geometry">
            <mxPoint x="100" y="360" as="sourcePoint" />
            <mxPoint x="320" y="360" as="targetPoint" />
          </mxGeometry>
        </mxCell>
        <mxCell id="aIIOKU_stQFObS0WnXqj-6" value="Klik tambah Menu" style="edgeLabel;html=1;align=center;verticalAlign=middle;resizable=0;points=[];" connectable="0" vertex="1" parent="aIIOKU_stQFObS0WnXqj-5">
          <mxGeometry x="-0.3051" relative="1" as="geometry">
            <mxPoint x="24" as="offset" />
          </mxGeometry>
        </mxCell>
        <mxCell id="aIIOKU_stQFObS0WnXqj-8" value="" style="endArrow=none;dashed=1;html=1;rounded=0;entryX=0.5;entryY=1;entryDx=0;entryDy=0;" edge="1" parent="1" target="aIIOKU_stQFObS0WnXqj-7">
          <mxGeometry width="50" height="50" relative="1" as="geometry">
            <mxPoint x="330" y="790" as="sourcePoint" />
            <mxPoint x="330" y="330" as="targetPoint" />
          </mxGeometry>
        </mxCell>
        <mxCell id="aIIOKU_stQFObS0WnXqj-7" value="" style="rounded=0;whiteSpace=wrap;html=1;" vertex="1" parent="1">
          <mxGeometry x="325" y="350" width="10" height="210" as="geometry" />
        </mxCell>
        <mxCell id="aIIOKU_stQFObS0WnXqj-12" value="" style="endArrow=classic;html=1;rounded=0;" edge="1" parent="1">
          <mxGeometry width="50" height="50" relative="1" as="geometry">
            <mxPoint x="320" y="390" as="sourcePoint" />
            <mxPoint x="100" y="390" as="targetPoint" />
          </mxGeometry>
        </mxCell>
        <mxCell id="aIIOKU_stQFObS0WnXqj-13" value="Tampil modal tambah menu" style="edgeLabel;html=1;align=center;verticalAlign=middle;resizable=0;points=[];" connectable="0" vertex="1" parent="aIIOKU_stQFObS0WnXqj-12">
          <mxGeometry x="0.0494" y="-1" relative="1" as="geometry">
            <mxPoint as="offset" />
          </mxGeometry>
        </mxCell>
        <mxCell id="aIIOKU_stQFObS0WnXqj-16" value="" style="endArrow=classic;html=1;rounded=0;" edge="1" parent="1">
          <mxGeometry width="50" height="50" relative="1" as="geometry">
            <mxPoint x="100" y="430" as="sourcePoint" />
            <mxPoint x="320" y="430" as="targetPoint" />
          </mxGeometry>
        </mxCell>
        <mxCell id="aIIOKU_stQFObS0WnXqj-17" value="&lt;div&gt;Isi data menu&lt;/div&gt;" style="edgeLabel;html=1;align=center;verticalAlign=middle;resizable=0;points=[];" connectable="0" vertex="1" parent="aIIOKU_stQFObS0WnXqj-16">
          <mxGeometry x="-0.3051" relative="1" as="geometry">
            <mxPoint x="24" as="offset" />
          </mxGeometry>
        </mxCell>
        <mxCell id="aIIOKU_stQFObS0WnXqj-18" value="" style="endArrow=classic;html=1;rounded=0;" edge="1" parent="1">
          <mxGeometry width="50" height="50" relative="1" as="geometry">
            <mxPoint x="100" y="470" as="sourcePoint" />
            <mxPoint x="320" y="470" as="targetPoint" />
          </mxGeometry>
        </mxCell>
        <mxCell id="aIIOKU_stQFObS0WnXqj-19" value="klik tambah menu" style="edgeLabel;html=1;align=center;verticalAlign=middle;resizable=0;points=[];" connectable="0" vertex="1" parent="aIIOKU_stQFObS0WnXqj-18">
          <mxGeometry x="-0.3051" relative="1" as="geometry">
            <mxPoint x="24" as="offset" />
          </mxGeometry>
        </mxCell>
        <mxCell id="aIIOKU_stQFObS0WnXqj-21" value="" style="endArrow=none;dashed=1;html=1;rounded=0;entryX=0.5;entryY=1;entryDx=0;entryDy=0;" edge="1" parent="1" target="aIIOKU_stQFObS0WnXqj-20">
          <mxGeometry width="50" height="50" relative="1" as="geometry">
            <mxPoint x="580" y="790" as="sourcePoint" />
            <mxPoint x="580" y="240" as="targetPoint" />
          </mxGeometry>
        </mxCell>
        <mxCell id="aIIOKU_stQFObS0WnXqj-20" value="" style="rounded=0;whiteSpace=wrap;html=1;" vertex="1" parent="1">
          <mxGeometry x="575" y="460" width="10" height="80" as="geometry" />
        </mxCell>
        <mxCell id="aIIOKU_stQFObS0WnXqj-25" value="" style="endArrow=none;dashed=1;html=1;rounded=0;entryX=0.5;entryY=0.5;entryDx=0;entryDy=0;entryPerimeter=0;" edge="1" parent="1" source="aIIOKU_stQFObS0WnXqj-38" target="aIIOKU_stQFObS0WnXqj-24">
          <mxGeometry width="50" height="50" relative="1" as="geometry">
            <mxPoint x="85" y="790" as="sourcePoint" />
            <mxPoint x="85" y="30" as="targetPoint" />
          </mxGeometry>
        </mxCell>
        <mxCell id="aIIOKU_stQFObS0WnXqj-24" value="" style="rounded=0;whiteSpace=wrap;html=1;" vertex="1" parent="1">
          <mxGeometry x="80" y="350" width="10" height="210" as="geometry" />
        </mxCell>
        <mxCell id="aIIOKU_stQFObS0WnXqj-26" value="" style="endArrow=classic;html=1;rounded=0;entryX=-0.45;entryY=0.125;entryDx=0;entryDy=0;entryPerimeter=0;" edge="1" parent="1" target="aIIOKU_stQFObS0WnXqj-20">
          <mxGeometry width="50" height="50" relative="1" as="geometry">
            <mxPoint x="350" y="470" as="sourcePoint" />
            <mxPoint x="590" y="470" as="targetPoint" />
          </mxGeometry>
        </mxCell>
        <mxCell id="aIIOKU_stQFObS0WnXqj-27" value="klik tambah menu" style="edgeLabel;html=1;align=center;verticalAlign=middle;resizable=0;points=[];" connectable="0" vertex="1" parent="aIIOKU_stQFObS0WnXqj-26">
          <mxGeometry x="-0.3051" relative="1" as="geometry">
            <mxPoint x="24" as="offset" />
          </mxGeometry>
        </mxCell>
        <mxCell id="aIIOKU_stQFObS0WnXqj-30" value="" style="endArrow=classic;html=1;rounded=0;exitX=0;exitY=0.5;exitDx=0;exitDy=0;" edge="1" parent="1">
          <mxGeometry width="50" height="50" relative="1" as="geometry">
            <mxPoint x="570" y="530" as="sourcePoint" />
            <mxPoint x="335" y="530" as="targetPoint" />
          </mxGeometry>
        </mxCell>
        <mxCell id="aIIOKU_stQFObS0WnXqj-31" value="response" style="edgeLabel;html=1;align=center;verticalAlign=middle;resizable=0;points=[];" connectable="0" vertex="1" parent="aIIOKU_stQFObS0WnXqj-30">
          <mxGeometry x="0.0494" y="-1" relative="1" as="geometry">
            <mxPoint as="offset" />
          </mxGeometry>
        </mxCell>
        <mxCell id="aIIOKU_stQFObS0WnXqj-32" value="" style="endArrow=classic;html=1;rounded=0;" edge="1" parent="1">
          <mxGeometry width="50" height="50" relative="1" as="geometry">
            <mxPoint x="320" y="550" as="sourcePoint" />
            <mxPoint x="100" y="550.42" as="targetPoint" />
          </mxGeometry>
        </mxCell>
        <mxCell id="aIIOKU_stQFObS0WnXqj-33" value="tampil dialog response" style="edgeLabel;html=1;align=center;verticalAlign=middle;resizable=0;points=[];" connectable="0" vertex="1" parent="aIIOKU_stQFObS0WnXqj-32">
          <mxGeometry x="0.0494" y="-1" relative="1" as="geometry">
            <mxPoint as="offset" />
          </mxGeometry>
        </mxCell>
        <mxCell id="aIIOKU_stQFObS0WnXqj-35" value="" style="endArrow=none;dashed=1;html=1;rounded=0;entryX=0.5;entryY=1;entryDx=0;entryDy=0;" edge="1" parent="1" source="aIIOKU_stQFObS0WnXqj-20" target="aIIOKU_stQFObS0WnXqj-34">
          <mxGeometry width="50" height="50" relative="1" as="geometry">
            <mxPoint x="580" y="460" as="sourcePoint" />
            <mxPoint x="580" y="240" as="targetPoint" />
          </mxGeometry>
        </mxCell>
        <mxCell id="aIIOKU_stQFObS0WnXqj-34" value="" style="rounded=0;whiteSpace=wrap;html=1;" vertex="1" parent="1">
          <mxGeometry x="575" y="270" width="10" height="80" as="geometry" />
        </mxCell>
        <mxCell id="aIIOKU_stQFObS0WnXqj-36" value="" style="endArrow=classic;html=1;rounded=0;" edge="1" parent="1">
          <mxGeometry width="50" height="50" relative="1" as="geometry">
            <mxPoint x="340" y="290" as="sourcePoint" />
            <mxPoint x="560" y="290" as="targetPoint" />
          </mxGeometry>
        </mxCell>
        <mxCell id="aIIOKU_stQFObS0WnXqj-37" value="&lt;div&gt;Buka halaman Menu&lt;/div&gt;&lt;div&gt;&lt;br&gt;&lt;/div&gt;" style="edgeLabel;html=1;align=center;verticalAlign=middle;resizable=0;points=[];" connectable="0" vertex="1" parent="aIIOKU_stQFObS0WnXqj-36">
          <mxGeometry x="-0.3051" relative="1" as="geometry">
            <mxPoint x="24" as="offset" />
          </mxGeometry>
        </mxCell>
        <mxCell id="aIIOKU_stQFObS0WnXqj-39" value="" style="endArrow=none;dashed=1;html=1;rounded=0;entryX=0.5;entryY=0.5;entryDx=0;entryDy=0;entryPerimeter=0;" edge="1" parent="1" target="aIIOKU_stQFObS0WnXqj-38">
          <mxGeometry width="50" height="50" relative="1" as="geometry">
            <mxPoint x="85" y="790" as="sourcePoint" />
            <mxPoint x="85" y="455" as="targetPoint" />
          </mxGeometry>
        </mxCell>
        <mxCell id="aIIOKU_stQFObS0WnXqj-38" value="" style="rounded=0;whiteSpace=wrap;html=1;" vertex="1" parent="1">
          <mxGeometry x="80" y="590" width="10" height="110" as="geometry" />
        </mxCell>
      </root>
    </mxGraphModel>
  </diagram>
</mxfile>
